<svg width="24" height="24" viewBox="0 0 24 24" fill="none" xmlns="http://www.w3.org/2000/svg">
<path d="M10.6206 6.3125C10.8939 6.36851 11.0991 6.61049 11.0991 6.90039C11.099 7.19018 10.8939 7.43229 10.6206 7.48828L10.4995 7.5H8.46533C7.75159 7.50018 7.10518 7.92277 6.81787 8.57617L5.47119 11.6357C5.46568 11.6639 5.45943 11.6922 5.44971 11.7197L5.39795 11.8291L5.35596 11.8984L5.34814 11.917L5.28857 12.0225C5.28202 12.0317 5.27313 12.0391 5.26611 12.0479L5.2124 12.1387L5.16943 12.2109L5.10791 12.2676C5.00423 12.3646 4.77327 12.6286 4.5249 12.9346C4.27897 13.2375 4.06172 13.5248 3.979 13.6553L3.97803 13.6572C3.54631 14.3331 3.31885 15.1154 3.31885 15.9248V20.6758H5.33447V19.9502C5.33471 19.4535 5.73813 19.051 6.23486 19.0508H17.7534C18.2503 19.0508 18.6536 19.4534 18.6538 19.9502V20.6758H20.6685V15.9248C20.6685 15.5423 20.54 15.0397 20.2622 14.4004L20.1343 14.1182C20.048 13.9357 19.8905 13.6773 19.7036 13.3975L19.5083 13.1123L19.3618 12.9062L19.355 12.8975L19.3491 12.8867L18.7495 11.9814L18.7427 11.9688C18.657 11.8614 18.6054 11.726 18.6099 11.5781C18.6188 11.2884 18.832 11.0534 19.1069 11.0059L19.228 10.9971C19.6679 11.0104 20.1142 11.0219 20.4507 11.0303C20.6188 11.0344 20.7594 11.0378 20.8579 11.04C20.9071 11.0412 20.9458 11.0424 20.9722 11.043C20.9853 11.0433 20.9956 11.0428 21.0024 11.043C21.0058 11.043 21.0085 11.0439 21.0103 11.0439H21.0132C21.3441 11.0515 21.6062 11.3253 21.5991 11.6562C21.5918 11.9875 21.3171 12.2505 20.9858 12.2432H20.9761C20.9692 12.243 20.9581 12.2425 20.9448 12.2422C20.9183 12.2416 20.8796 12.2414 20.8306 12.2402C20.7315 12.2379 20.5893 12.2337 20.4204 12.2295L20.3521 12.2275L20.4907 12.4238L20.6958 12.7236C20.9005 13.0297 21.0973 13.3475 21.2192 13.6055L21.3599 13.9141C21.6716 14.6293 21.8687 15.309 21.8687 15.9248V20.9004C21.8684 21.4385 21.4321 21.8757 20.894 21.876H18.4282C17.8901 21.8757 17.4539 21.4385 17.4536 20.9004V20.251H6.53467V20.9004C6.5344 21.4386 6.0974 21.876 5.55908 21.876H3.09424C2.5561 21.8758 2.11989 21.4385 2.11963 20.9004V15.9248C2.11963 14.8894 2.40987 13.8828 2.96631 13.0117C3.0839 12.8265 3.31916 12.5175 3.55127 12.2295C3.39452 12.2334 3.26207 12.2381 3.16846 12.2402C3.11961 12.2414 3.08067 12.2416 3.0542 12.2422C3.04105 12.2425 3.02979 12.243 3.02295 12.2432H3.01318C2.68207 12.2503 2.4072 11.9874 2.3999 11.6562C2.393 11.3256 2.65519 11.0517 2.98584 11.0439H2.98877C2.99042 11.0439 2.99336 11.0431 2.99658 11.043C3.00332 11.0428 3.01387 11.0432 3.02686 11.043C3.05319 11.0424 3.09214 11.0412 3.14111 11.04C3.23957 11.0378 3.38039 11.0344 3.54834 11.0303C3.79964 11.024 4.11257 11.0151 4.43799 11.0059L5.71924 8.09277C6.19814 7.00374 7.27567 6.30096 8.46533 6.30078H10.4995L10.6206 6.3125ZM13.9702 16.9619C14.2435 17.018 14.4487 17.2599 14.4487 17.5498C14.4487 17.8397 14.2435 18.0817 13.9702 18.1377L13.8491 18.1494H10.1392C9.80779 18.1494 9.53955 17.8812 9.53955 17.5498C9.53955 17.2184 9.80779 16.9502 10.1392 16.9502H13.8491L13.9702 16.9619ZM16.9995 1.65039C19.5397 1.6506 21.5989 3.7098 21.5991 6.25C21.5991 8.79038 19.5398 10.8494 16.9995 10.8496C16.4397 10.8496 15.9023 10.7484 15.4048 10.5645L13.4956 12.5977C13.3444 12.7586 13.1334 12.8496 12.9126 12.8496H12.0991V14.042C12.099 14.4836 11.7409 14.8416 11.2993 14.8418H9.18311C8.74134 14.8418 8.38341 14.4837 8.3833 14.042V11.9277C8.38341 11.7089 8.47282 11.4986 8.63135 11.3477L12.5933 7.5752C12.4671 7.15504 12.3989 6.70981 12.3989 6.25C12.3991 3.70967 14.4591 1.65039 16.9995 1.65039ZM16.9995 2.84961C15.1219 2.84961 13.5993 4.37241 13.5991 6.25C13.5991 6.65905 13.6708 7.05046 13.8022 7.41211L13.8345 7.52246C13.8817 7.74768 13.8325 7.99074 13.6851 8.18164L13.603 8.27246L9.58252 12.0986V13.6416H10.8989V12.4502C10.8991 12.0086 11.2572 11.6505 11.6987 11.6504H12.7388L14.7153 9.54688L14.812 9.45898C15.0156 9.30269 15.2769 9.25864 15.5132 9.32227L15.6294 9.36328L15.7876 9.42773C16.1633 9.57108 16.5718 9.65039 16.9995 9.65039C18.8771 9.65018 20.3989 8.12764 20.3989 6.25C20.3987 4.37254 18.877 2.84982 16.9995 2.84961ZM17.7993 4.5C18.2411 4.5 18.599 4.85807 18.5991 5.2998C18.5991 5.74163 18.2411 6.09961 17.7993 6.09961C17.3576 6.0995 16.9995 5.74157 16.9995 5.2998C16.9996 4.85813 17.3576 4.50011 17.7993 4.5Z" fill="#003893"/>
</svg>
