<svg width="16" height="16" viewBox="0 0 16 16" fill="none" xmlns="http://www.w3.org/2000/svg">
<path fill-rule="evenodd" clip-rule="evenodd" d="M3.20002 3.20005C3.5314 3.20005 3.80002 2.93142 3.80002 2.60005C3.80002 2.26868 3.5314 2.00005 3.20002 2.00005C2.86865 2.00005 2.60002 2.26868 2.60002 2.60005C2.60002 2.93142 2.86865 3.20005 3.20002 3.20005ZM3.80002 4.29763C4.49914 4.05052 5.00002 3.38378 5.00002 2.60005C5.00002 1.60594 4.19414 0.800049 3.20002 0.800049C2.20591 0.800049 1.40002 1.60594 1.40002 2.60005C1.40002 3.38378 1.90091 4.05052 2.60002 4.29763V5.60005V6.80005V9.30247C1.90091 9.54957 1.40002 10.2163 1.40002 11C1.40002 11.9942 2.20591 12.8 3.20002 12.8C4.19414 12.8 5.00002 11.9942 5.00002 11C5.00002 10.2163 4.49914 9.54957 3.80002 9.30247V6.80005H7.40002V9.30247C6.70091 9.54957 6.20002 10.2163 6.20002 11C6.20002 11.9942 7.00591 12.8 8.00002 12.8C8.99414 12.8 9.80002 11.9942 9.80002 11C9.80002 10.2163 9.29914 9.54957 8.60002 9.30247V6.80005H12.2V11.7025C11.5009 11.9496 11 12.6163 11 13.4C11 14.3942 11.8059 15.2 12.8 15.2C13.7941 15.2 14.6 14.3942 14.6 13.4C14.6 12.6163 14.0991 11.9496 13.4 11.7025V6.80005V5.60005V4.29763C14.0991 4.05052 14.6 3.38378 14.6 2.60005C14.6 1.60594 13.7941 0.800049 12.8 0.800049C11.8059 0.800049 11 1.60594 11 2.60005C11 3.38378 11.5009 4.05052 12.2 4.29763V5.60005H8.60002V4.29763C9.29914 4.05052 9.80002 3.38378 9.80002 2.60005C9.80002 1.60594 8.99414 0.800049 8.00002 0.800049C7.00591 0.800049 6.20002 1.60594 6.20002 2.60005C6.20002 3.38378 6.70091 4.05052 7.40002 4.29763V5.60005H3.80002V4.29763ZM3.20002 10.4C2.86865 10.4 2.60002 10.6687 2.60002 11C2.60002 11.3314 2.86865 11.6 3.20002 11.6C3.5314 11.6 3.80002 11.3314 3.80002 11C3.80002 10.6687 3.5314 10.4 3.20002 10.4ZM8.60002 2.60005C8.60002 2.93142 8.33139 3.20005 8.00002 3.20005C7.66865 3.20005 7.40002 2.93142 7.40002 2.60005C7.40002 2.26868 7.66865 2.00005 8.00002 2.00005C8.33139 2.00005 8.60002 2.26868 8.60002 2.60005ZM7.40002 11C7.40002 10.6687 7.66865 10.4 8.00002 10.4C8.33139 10.4 8.60002 10.6687 8.60002 11C8.60002 11.3314 8.33139 11.6 8.00002 11.6C7.66865 11.6 7.40002 11.3314 7.40002 11ZM13.4 2.60005C13.4 2.93142 13.1314 3.20005 12.8 3.20005C12.4687 3.20005 12.2 2.93142 12.2 2.60005C12.2 2.26868 12.4687 2.00005 12.8 2.00005C13.1314 2.00005 13.4 2.26868 13.4 2.60005ZM12.8 12.8C12.4687 12.8 12.2 13.0687 12.2 13.4C12.2 13.7314 12.4687 14 12.8 14C13.1314 14 13.4 13.7314 13.4 13.4C13.4 13.0687 13.1314 12.8 12.8 12.8Z" fill="#001D65"/>
</svg>
