<svg width="24" height="24" viewBox="0 0 24 24" fill="none" xmlns="http://www.w3.org/2000/svg">
<path fill-rule="evenodd" clip-rule="evenodd" d="M6.52917 4.85749V6.23507H7.60917V4.85749H16.1171V6.23507H17.1971V4.85749H20.3111C20.3442 4.85749 20.3711 4.88435 20.3711 4.91749V8.99025L4.19279 8.99024V4.91749C4.19279 4.88435 4.21966 4.85749 4.25279 4.85749H6.52917ZM4.19279 10.0702V20.017C4.19279 20.0501 4.21966 20.077 4.25279 20.077H20.3111C20.3442 20.077 20.3711 20.0501 20.3711 20.017V10.0702L4.19279 10.0702ZM7.60917 3.77749H16.1171V2.3999H17.1971V3.77749H20.3111C20.9407 3.77749 21.4511 4.28788 21.4511 4.91749V20.017C21.4511 20.6466 20.9407 21.157 20.3111 21.157H4.25279C3.62319 21.157 3.11279 20.6466 3.11279 20.017V4.91749C3.11279 4.28789 3.62319 3.77749 4.25279 3.77749H6.52917V2.3999H7.60917V3.77749ZM11.3231 11.9878H13.2407V13.9054H11.3231V11.9878ZM17.0759 11.9878V13.9054H15.1583V11.9878H17.0759ZM9.40555 15.823H7.48796V17.7406H9.40555V15.823ZM11.3231 15.823H13.2407V17.7406H11.3231V15.823ZM15.1583 15.823V17.7406H17.0759V15.823H15.1583Z" fill="#787B8B"/>
</svg>
