<svg width="24" height="24" viewBox="0 0 24 24" fill="none" xmlns="http://www.w3.org/2000/svg">
<path fill-rule="evenodd" clip-rule="evenodd" d="M8.04262 2.6274C9.26558 2.12083 10.5763 1.86011 11.9001 1.86011C13.2238 1.86011 14.5346 2.12083 15.7575 2.6274C16.9805 3.13397 18.0917 3.87646 19.0277 4.81247C19.9637 5.74849 20.7062 6.8597 21.2128 8.08266C21.7193 9.30562 21.9801 10.6164 21.9801 11.9401C21.9801 13.2638 21.7193 14.5746 21.2128 15.7976C20.7062 17.0205 19.9637 18.1317 19.0277 19.0677C18.0917 20.0038 16.9805 20.7462 15.7575 21.2528C14.5346 21.7594 13.2238 22.0201 11.9001 22.0201C10.5763 22.0201 9.26558 21.7594 8.04262 21.2528C6.81966 20.7462 5.70845 20.0038 4.77243 19.0677C3.83642 18.1317 3.09393 17.0205 2.58736 15.7976C2.0808 14.5746 1.82007 13.2638 1.82007 11.9401C1.82007 10.6164 2.0808 9.30562 2.58736 8.08266C3.09393 6.8597 3.83642 5.74849 4.77243 4.81247C5.70845 3.87646 6.81966 3.13397 8.04262 2.6274ZM11.9001 2.94011C10.7182 2.94011 9.54785 3.1729 8.45592 3.62519C7.36399 4.07748 6.37183 4.74042 5.53611 5.57615C4.70038 6.41187 4.03745 7.40403 3.58515 8.49596C3.13286 9.58789 2.90007 10.7582 2.90007 11.9401C2.90007 13.122 3.13286 14.2923 3.58515 15.3843C4.03745 16.4762 4.70038 17.4683 5.53611 18.3041C6.37183 19.1398 7.36399 19.8027 8.45592 20.255C9.54785 20.7073 10.7182 20.9401 11.9001 20.9401C13.082 20.9401 14.2523 20.7073 15.3442 20.255C16.4362 19.8027 17.4283 19.1398 18.264 18.3041C19.0998 17.4683 19.7627 16.4762 20.215 15.3843C20.6673 14.2923 20.9001 13.122 20.9001 11.9401C20.9001 10.7582 20.6673 9.58789 20.215 8.49596C19.7627 7.40403 19.0998 6.41187 18.264 5.57615C17.4283 4.74042 16.4362 4.07748 15.3442 3.62519C14.2523 3.1729 13.082 2.94011 11.9001 2.94011ZM11.9001 5.72154C12.1983 5.72154 12.4401 5.9633 12.4401 6.26154V11.9401C12.4401 12.1393 12.3305 12.3222 12.1549 12.4162C11.9793 12.5102 11.7662 12.4999 11.6005 12.3894L8.19339 10.118C7.94524 9.95256 7.87819 9.61729 8.04362 9.36914C8.20905 9.121 8.54432 9.05394 8.79246 9.21937L11.3601 10.9311V6.26154C11.3601 5.9633 11.6018 5.72154 11.9001 5.72154Z" fill="#787B8B"/>
</svg>
