<svg width="20" height="20" viewBox="0 0 20 20" fill="none" xmlns="http://www.w3.org/2000/svg">
<path fill-rule="evenodd" clip-rule="evenodd" d="M0.722726 0.601999C0.992188 0.332537 1.42907 0.332537 1.69853 0.601999L10.0603 8.96379L18.4221 0.601999C18.6916 0.332537 19.1285 0.332537 19.3979 0.601999C19.6674 0.87146 19.6674 1.30834 19.3979 1.57781L11.0361 9.93959L19.3979 18.3014C19.6674 18.5708 19.6674 19.0077 19.3979 19.2772C19.1285 19.5467 18.6916 19.5467 18.4221 19.2772L10.0603 10.9154L1.69853 19.2772C1.42907 19.5467 0.992188 19.5467 0.722726 19.2772C0.453264 19.0077 0.453264 18.5708 0.722726 18.3014L9.08452 9.93959L0.722726 1.57781C0.453264 1.30834 0.453264 0.87146 0.722726 0.601999Z" fill="#00A5D1"/>
</svg>
