<svg width="16" height="16" viewBox="0 0 16 16" fill="none" xmlns="http://www.w3.org/2000/svg">
<path fill-rule="evenodd" clip-rule="evenodd" d="M2.00005 12.2001L2.00005 8.6001H14V12.2001H2.00005ZM15.2 3.8001V7.4001V8.0001V8.6001V12.2001C15.2 12.8628 14.6628 13.4001 14 13.4001H2.00005C1.33731 13.4001 0.800049 12.8628 0.800049 12.2001V8.6001V8.0001L1.26672 7.4001L4.63973 3.06337C4.86707 2.77106 5.21664 2.6001 5.58695 2.6001H14C14.6628 2.6001 15.2 3.13736 15.2 3.8001ZM2.78695 7.4001H14V3.8001H5.58695L2.78695 7.4001ZM12.8 11.0001C13.1314 11.0001 13.4 10.7315 13.4 10.4001C13.4 10.0687 13.1314 9.8001 12.8 9.8001H10.4C10.0687 9.8001 9.80005 10.0687 9.80005 10.4001C9.80005 10.7315 10.0687 11.0001 10.4 11.0001H12.8Z" fill="#001D65"/>
</svg>
