<svg width="16" height="12" viewBox="0 0 16 12" fill="none" xmlns="http://www.w3.org/2000/svg">
<path fill-rule="evenodd" clip-rule="evenodd" d="M2.00005 10.2001L2.00005 6.6001H14V10.2001H2.00005ZM15.2 1.8001V5.4001V6.0001V6.6001V10.2001C15.2 10.8628 14.6628 11.4001 14 11.4001H2.00005C1.33731 11.4001 0.800049 10.8628 0.800049 10.2001V6.6001V6.0001L1.26672 5.4001L4.63973 1.06337C4.86707 0.771064 5.21664 0.600098 5.58695 0.600098H14C14.6628 0.600098 15.2 1.13736 15.2 1.8001ZM2.78695 5.4001H14V1.8001H5.58695L2.78695 5.4001ZM12.8 9.0001C13.1314 9.0001 13.4 8.73147 13.4 8.4001C13.4 8.06873 13.1314 7.8001 12.8 7.8001H10.4C10.0687 7.8001 9.80005 8.06873 9.80005 8.4001C9.80005 8.73147 10.0687 9.0001 10.4 9.0001H12.8Z" fill="#001D65"/>
</svg>
