<svg width="17" height="16" viewBox="0 0 17 16" fill="none" xmlns="http://www.w3.org/2000/svg">
<path d="M4.76953 4.06836C4.9976 4.11481 5.16895 4.31681 5.16895 4.55859C5.16884 4.8003 4.99755 5.00241 4.76953 5.04883L4.66895 5.05859H3.9043C3.63133 5.05864 3.36978 5.16733 3.17676 5.36035C2.9838 5.55336 2.87504 5.81497 2.875 6.08789V12.9707C2.87508 13.2436 2.98379 13.5053 3.17676 13.6982C3.36977 13.8912 3.63138 14 3.9043 14H10.7871C11.0601 14 11.3216 13.8912 11.5146 13.6982C11.7076 13.5052 11.8163 13.2436 11.8164 12.9707V12.2061C11.8164 11.9299 12.0403 11.7061 12.3164 11.7061C12.5925 11.7061 12.8164 11.9299 12.8164 12.2061V12.9707C12.8163 13.5088 12.6022 14.0247 12.2217 14.4053C11.8411 14.7858 11.3253 15 10.7871 15H3.9043C3.36616 15 2.85027 14.7858 2.46973 14.4053C2.08923 14.0247 1.87508 13.5088 1.875 12.9707V6.08789C1.87504 5.54975 2.08924 5.03387 2.46973 4.65332C2.85029 4.27276 3.36611 4.05864 3.9043 4.05859H4.66895L4.76953 4.06836ZM13.9766 1.01074C14.4585 1.05871 14.9114 1.27175 15.2568 1.61719C15.6517 2.01214 15.874 2.54793 15.874 3.10645C15.8739 3.66457 15.6513 4.19895 15.2568 4.59375L15.2578 4.59473L14.2705 5.58398C14.2505 5.61628 14.2282 5.64774 14.2002 5.67578C14.1726 5.70338 14.1421 5.72629 14.1104 5.74609L9.02148 10.8535C8.81513 11.0605 8.53449 11.1767 8.24219 11.1768H6.79688C6.18964 11.1765 5.69742 10.6844 5.69727 10.0771V8.63184C5.69727 8.33948 5.81345 8.05893 6.02051 7.85254L11.1348 2.75586C11.1533 2.72746 11.1743 2.69974 11.1992 2.6748C11.2245 2.64951 11.2524 2.62813 11.2812 2.60938L12.2793 1.61621C12.6742 1.22162 13.2103 1 13.7686 1L13.9766 1.01074ZM6.72656 8.56055C6.70773 8.57931 6.69727 8.60525 6.69727 8.63184V10.0771C6.69742 10.1321 6.74192 10.1765 6.79688 10.1768H8.24219C8.26872 10.1767 8.29475 10.1663 8.31348 10.1475L13.1299 5.3125L11.5605 3.74316L6.72656 8.56055ZM13.7686 2C13.4753 2 13.1937 2.11685 12.9863 2.32422H12.9854L12.2686 3.03711L13.8359 4.60449L14.5498 3.88867V3.8877L14.624 3.80664C14.785 3.61001 14.8739 3.36276 14.874 3.10645C14.874 2.81315 14.7572 2.53163 14.5498 2.32422C14.3683 2.14269 14.1302 2.03094 13.877 2.00586L13.7686 2Z" fill="#001D65"/>
</svg>
