<svg width="16" height="16" viewBox="0 0 16 16" fill="none" xmlns="http://www.w3.org/2000/svg">
<path d="M8.77393 1.80859C9.63116 1.89566 10.3003 2.6198 10.3003 3.5V6.78711H10.5122C11.0241 6.78721 11.5163 6.98917 11.8794 7.34961C12.2425 7.71017 12.4476 8.20047 12.4478 8.71191V10.8496C12.4478 10.9991 12.5073 11.1431 12.6147 11.25C12.7226 11.3571 12.8699 11.418 13.0239 11.418C13.1778 11.4179 13.3253 11.357 13.4331 11.25C13.5403 11.1431 13.6001 10.9989 13.6001 10.8496V6.3623H13.3823C13.0607 6.36224 12.7515 6.23555 12.5229 6.00879C12.2944 5.78177 12.1646 5.47296 12.1646 5.15039V4.64355L11.5952 4.0791L11.9478 3.72461L12.2993 3.37012L14.2749 5.33105L14.3491 5.41211C14.5107 5.60811 14.6 5.85604 14.6001 6.1123V10.8496C14.6001 11.2666 14.433 11.6661 14.1372 11.96C13.8414 12.2537 13.4408 12.4179 13.0239 12.418C12.607 12.418 12.2066 12.2537 11.9106 11.96C11.6147 11.6661 11.4478 11.2668 11.4478 10.8496V8.71191C11.4476 8.46799 11.3492 8.23317 11.1743 8.05957C10.9993 7.88589 10.7612 7.78721 10.5122 7.78711H10.3003V13.1992H10.5112L10.6128 13.209C10.8405 13.2557 11.0112 13.4577 11.0112 13.6992C11.0112 13.9407 10.8405 14.1427 10.6128 14.1895L10.5112 14.1992H9.81006C9.80681 14.1993 9.80356 14.2002 9.80029 14.2002C9.79702 14.2002 9.79378 14.1993 9.79053 14.1992H2.60986C2.60661 14.1993 2.60337 14.2002 2.6001 14.2002C2.59683 14.2002 2.59359 14.1993 2.59033 14.1992H1.8999C1.62376 14.1992 1.3999 13.9754 1.3999 13.6992C1.3999 13.4231 1.62376 13.1992 1.8999 13.1992H2.1001V3.5C2.1001 2.56111 2.86141 1.7998 3.80029 1.7998H8.6001L8.77393 1.80859ZM3.1001 7.78711V13.1992H9.30029V7.78711H3.1001ZM3.80029 2.7998C3.41369 2.7998 3.1001 3.1134 3.1001 3.5V6.78711H9.30029V3.5C9.30029 3.1134 8.9867 2.79981 8.6001 2.7998H3.80029ZM11.5923 3.37207C11.7868 3.17651 12.1035 3.1758 12.2993 3.37012L11.5952 4.0791C11.3995 3.88452 11.3978 3.56796 11.5923 3.37207Z" fill="#001D65"/>
</svg>
