<svg width="17" height="16" viewBox="0 0 17 16" fill="none" xmlns="http://www.w3.org/2000/svg">
<path fill-rule="evenodd" clip-rule="evenodd" d="M7.00538 3.09749C6.52108 2.55938 5.9839 2.31137 5.46907 2.32034L5.4628 2.32039C5.11584 2.32039 4.78309 2.45822 4.53775 2.70356C4.29241 2.9489 4.15458 3.28165 4.15458 3.62861C4.15458 3.97557 4.29241 4.30832 4.53775 4.55365C4.78309 4.79899 5.11584 4.93682 5.4628 4.93682C5.46638 4.93682 5.46995 4.93687 5.47351 4.93698H7.99257C7.75636 4.18228 7.41365 3.55112 7.00538 3.09749ZM8.10566 5.65698V7.60612H3.06001C2.92746 7.60612 2.82001 7.49867 2.82001 7.36612V5.89698C2.82001 5.76443 2.92746 5.65698 3.06001 5.65698H8.10566ZM8.82566 7.60612V5.65698H13.8712C14.0037 5.65698 14.1112 5.76443 14.1112 5.89698V7.36612C14.1112 7.49867 14.0037 7.60612 13.8712 7.60612H8.82566ZM8.10566 8.32612H4.15468V12.7717C4.15468 13.2356 4.53076 13.6117 4.99467 13.6117L8.10566 13.6118V8.32612ZM8.82566 13.6118V8.32612H12.7767L12.7768 12.7718C12.7768 13.2357 12.4007 13.6118 11.9368 13.6118L8.82566 13.6118ZM13.4967 8.32612L13.4968 12.7718C13.4968 13.6333 12.7983 14.3318 11.9367 14.3318L4.99467 14.3317C4.13311 14.3317 3.43468 13.6333 3.43468 12.7717V8.32612H3.06001C2.52981 8.32612 2.10001 7.89632 2.10001 7.36612V5.89698C2.10001 5.36678 2.52981 4.93698 3.06001 4.93698H3.91301C3.60524 4.57245 3.43458 4.10933 3.43458 3.62861C3.43458 3.09069 3.64827 2.57481 4.02863 2.19444C4.40824 1.81483 4.92284 1.60124 5.4596 1.6004C6.23106 1.58798 6.95436 1.9645 7.54056 2.61584C7.91126 3.02773 8.22297 3.54357 8.46564 4.12999C8.70825 3.54358 9.01991 3.02774 9.39062 2.61584C9.97685 1.96446 10.7002 1.58794 11.4717 1.6004C12.0084 1.60128 12.523 1.81487 12.9025 2.19444C13.2829 2.57481 13.4966 3.09069 13.4966 3.62861C13.4966 4.10933 13.3259 4.57245 13.0182 4.93698H13.8712C14.4013 4.93698 14.8312 5.36679 14.8312 5.89698V7.36612C14.8312 7.89632 14.4013 8.32612 13.8712 8.32612H13.4967ZM11.4577 4.93698C11.4612 4.93687 11.4648 4.93682 11.4684 4.93682C11.8153 4.93682 12.1481 4.79899 12.3934 4.55365C12.6388 4.30832 12.7766 3.97557 12.7766 3.62861C12.7766 3.28165 12.6388 2.9489 12.3934 2.70356C12.1481 2.45822 11.8153 2.32039 11.4684 2.32039L11.4621 2.32034C10.9473 2.31137 10.4101 2.55938 9.92579 3.09749C9.51753 3.55111 9.17492 4.18225 8.93873 4.93698H11.4577Z" fill="#003893"/>
</svg>
