<svg width="13" height="12" viewBox="0 0 13 12" fill="none" xmlns="http://www.w3.org/2000/svg">
<path d="M7.94531 0.235352C8.22086 0.235418 8.47963 0.348777 8.66895 0.515625C8.85964 0.683905 9.02051 0.944941 9.02051 1.26465V2.34082H11.2666C11.5936 2.34095 11.9862 2.43013 12.2891 2.74316C12.5476 3.01064 12.7101 3.37065 12.6973 3.77734V10.2881C12.6971 11.0889 12.0677 11.7645 11.2529 11.7646H1.44434C0.625183 11.7646 0.000128065 11.0849 0 10.2754V3.75098C0 2.92174 0.671256 2.34085 1.44434 2.34082H3.68945V1.26465C3.68945 0.944811 3.85022 0.683898 4.04102 0.515625C4.23035 0.348658 4.48899 0.235434 4.76465 0.235352H7.94531ZM4.74414 1.24609C4.73075 1.25145 4.71701 1.25989 4.70605 1.26953C4.70151 1.27354 4.69783 1.27723 4.69531 1.28027V2.84277C4.69518 3.12021 4.46982 3.34557 4.19238 3.3457H1.44434C1.17423 3.34573 1.00586 3.52788 1.00586 3.75098V10.2754C1.00598 10.5705 1.22044 10.7597 1.44434 10.7598H11.2529C11.4811 10.7596 11.6923 10.5655 11.6924 10.2881V3.75293L11.6885 3.67188C11.6754 3.59155 11.6357 3.51414 11.5664 3.44238C11.5134 3.38753 11.4224 3.34583 11.2666 3.3457H8.51855C8.24101 3.3457 8.01576 3.12029 8.01562 2.84277V1.28223C8.0131 1.27902 8.009 1.27407 8.00391 1.26953C7.99314 1.26012 7.9799 1.25141 7.9668 1.24609C7.95482 1.2413 7.94675 1.24119 7.94531 1.24121H4.76465C4.76309 1.24132 4.75567 1.24152 4.74414 1.24609Z" fill="#94A1B2"/>
<path fill-rule="evenodd" clip-rule="evenodd" d="M8.68794 3.07617V11.2613H4.01074V3.07617H8.68794Z" stroke="#94A1B2" stroke-linecap="round" stroke-linejoin="round"/>
</svg>
