<svg width="24" height="24" viewBox="0 0 24 24" fill="none" xmlns="http://www.w3.org/2000/svg">
<path fill-rule="evenodd" clip-rule="evenodd" d="M10.7549 2.45804C8.22394 2.79766 5.93822 4.33817 4.65826 6.56644C3.45225 8.66614 3.22242 11.1732 4.02283 13.4924C4.18268 13.9544 4.65029 14.8959 4.92563 15.3077C5.35797 15.9557 5.6754 16.3015 7.77453 18.4132C10.046 20.6978 10.38 21.0135 10.7224 21.1955C11.2814 21.4842 11.9272 21.5561 12.536 21.3975C13.1521 21.2285 13.1134 21.2615 15.6784 18.7067C16.9686 17.4216 18.1536 16.2162 18.3117 16.0285C19.2748 14.8845 19.9211 13.4219 20.1446 11.8774C20.2493 11.1567 20.2317 9.93245 20.1071 9.27768C19.8869 8.11945 19.4683 7.06761 18.8607 6.14888C18.5109 5.61983 18.2799 5.33654 17.8151 4.86551C17.1579 4.18745 16.3845 3.63258 15.5317 3.22716C14.7246 2.8251 13.8552 2.56311 12.9604 2.45236C12.4006 2.38011 11.318 2.38295 10.7549 2.45804ZM12.9018 3.47803C14.0943 3.64872 15.2277 4.10608 16.2046 4.8109C16.6063 5.09875 17.2656 5.73133 17.5984 6.14831C18.4614 7.23088 18.9915 8.51368 19.1571 9.91936C19.2123 10.3853 19.1821 11.5122 19.103 11.9326C18.8533 13.27 18.3169 14.4311 17.5011 15.3999C17.3504 15.5791 16.2143 16.7344 14.9764 17.9683C13.2414 19.6977 12.6816 20.2336 12.5343 20.307C12.2664 20.4436 11.9619 20.4914 11.665 20.4435C11.1883 20.357 11.2242 20.3883 8.65799 17.817C7.06288 16.2185 6.18966 15.3151 6.03265 15.1012C5.26093 14.0644 4.77591 12.8427 4.6264 11.5589C4.55358 10.9689 4.59966 9.84484 4.72026 9.27199C5.13497 7.29971 6.25223 5.66819 7.9469 4.55775C8.77689 4.01391 9.93625 3.59181 10.9619 3.45983C11.3926 3.40465 12.4455 3.41432 12.9018 3.47803ZM11.1713 7.34977C10.7119 7.44829 10.2775 7.6397 9.89474 7.91225C9.51202 8.1848 9.18908 8.53274 8.94575 8.93467C8.70243 9.33661 8.54387 9.78405 8.4798 10.2495C8.41574 10.715 8.44753 11.1886 8.57323 11.6413C8.74422 12.2509 9.07941 12.8017 9.54219 13.2337C10.005 13.6657 10.5776 13.9622 11.1974 14.0909C11.5712 14.1683 12.21 14.1683 12.5849 14.0915C13.701 13.8628 14.6681 13.051 15.0902 11.9895C15.3218 11.4075 15.3895 10.6384 15.2632 10.0252C15.1256 9.36666 14.7989 8.76256 14.3232 8.28686C13.8475 7.81116 13.2434 7.48452 12.5849 7.34693C12.2197 7.27184 11.5285 7.27297 11.1713 7.34977ZM12.4108 8.35212C12.5212 8.37431 12.7687 8.46817 12.9604 8.56033C13.2534 8.70332 13.5141 8.90462 13.7265 9.15191C13.939 9.39919 14.0987 9.68725 14.196 9.99844C14.2637 10.2112 14.2802 10.354 14.2802 10.7192C14.2802 11.0838 14.2637 11.2266 14.196 11.4394C13.9678 12.1596 13.4149 12.7302 12.6776 13.0044C12.3357 13.1318 11.702 13.1653 11.3402 13.0743C10.6234 12.8951 10.0398 12.4287 9.73373 11.791C9.53406 11.3751 9.48286 11.1521 9.48343 10.7078C9.47501 10.3161 9.56956 9.92912 9.75762 9.58544C10.0563 9.00917 10.6735 8.51994 11.2902 8.3709C11.5598 8.30548 12.1366 8.2958 12.4108 8.35212Z" fill="#787B8B"/>
</svg>
