<svg width="22" height="20" viewBox="0 0 22 20" fill="none" xmlns="http://www.w3.org/2000/svg">
<g filter="url(#filter0_d_162_363)">
<path fill-rule="evenodd" clip-rule="evenodd" d="M9.14218 3.48148C8.17014 3.48148 7.38215 4.26947 7.38215 5.24151C7.38215 6.21355 8.17014 7.00154 9.14218 7.00154C10.1142 7.00154 10.9022 6.21355 10.9022 5.24151C10.9022 4.26947 10.1142 3.48148 9.14218 3.48148ZM6.70072 5.24151C6.70072 3.89313 7.7938 2.80005 9.14218 2.80005C10.4906 2.80005 11.5836 3.89313 11.5836 5.24151C11.5836 6.58989 10.4906 7.68297 9.14218 7.68297C7.7938 7.68297 6.70072 6.58989 6.70072 5.24151ZM12.4371 3.14076C12.4371 2.95259 12.5896 2.80005 12.7778 2.80005C14.1261 2.80005 15.2192 3.89313 15.2192 5.24151C15.2192 6.58989 14.1261 7.68297 12.7778 7.68297C12.5896 7.68297 12.4371 7.53042 12.4371 7.34225C12.4371 7.15408 12.5896 7.00154 12.7778 7.00154C13.7498 7.00154 14.5378 6.21355 14.5378 5.24151C14.5378 4.26947 13.7498 3.48148 12.7778 3.48148C12.5896 3.48148 12.4371 3.32893 12.4371 3.14076ZM4.59998 11.5438C4.59998 10.1954 5.69305 9.1023 7.04143 9.1023H11.2429C12.5913 9.1023 13.6844 10.1954 13.6844 11.5438V12.5941C13.6844 12.7823 13.5318 12.9348 13.3437 12.9348C13.1555 12.9348 13.003 12.7823 13.003 12.5941V11.5438C13.003 10.5717 12.215 9.78372 11.2429 9.78372H7.04143C6.0694 9.78372 5.2814 10.5717 5.2814 11.5438V12.5941C5.2814 12.7823 5.12886 12.9348 4.94069 12.9348C4.75252 12.9348 4.59998 12.7823 4.59998 12.5941V11.5438ZM14.0758 9.44301C14.0758 9.25484 14.2284 9.1023 14.4165 9.1023H14.8785C16.2269 9.1023 17.32 10.1954 17.32 11.5438V12.5941C17.32 12.7823 17.1674 12.9348 16.9793 12.9348C16.7911 12.9348 16.6385 12.7823 16.6385 12.5941V11.5438C16.6385 10.5717 15.8506 9.78372 14.8785 9.78372H14.4165C14.2284 9.78372 14.0758 9.63118 14.0758 9.44301Z" fill="#001D65"/>
<path fill-rule="evenodd" clip-rule="evenodd" d="M9.14218 3.48148C8.17014 3.48148 7.38215 4.26947 7.38215 5.24151C7.38215 6.21355 8.17014 7.00154 9.14218 7.00154C10.1142 7.00154 10.9022 6.21355 10.9022 5.24151C10.9022 4.26947 10.1142 3.48148 9.14218 3.48148ZM6.70072 5.24151C6.70072 3.89313 7.7938 2.80005 9.14218 2.80005C10.4906 2.80005 11.5836 3.89313 11.5836 5.24151C11.5836 6.58989 10.4906 7.68297 9.14218 7.68297C7.7938 7.68297 6.70072 6.58989 6.70072 5.24151ZM12.4371 3.14076C12.4371 2.95259 12.5896 2.80005 12.7778 2.80005C14.1261 2.80005 15.2192 3.89313 15.2192 5.24151C15.2192 6.58989 14.1261 7.68297 12.7778 7.68297C12.5896 7.68297 12.4371 7.53042 12.4371 7.34225C12.4371 7.15408 12.5896 7.00154 12.7778 7.00154C13.7498 7.00154 14.5378 6.21355 14.5378 5.24151C14.5378 4.26947 13.7498 3.48148 12.7778 3.48148C12.5896 3.48148 12.4371 3.32893 12.4371 3.14076ZM4.59998 11.5438C4.59998 10.1954 5.69305 9.1023 7.04143 9.1023H11.2429C12.5913 9.1023 13.6844 10.1954 13.6844 11.5438V12.5941C13.6844 12.7823 13.5318 12.9348 13.3437 12.9348C13.1555 12.9348 13.003 12.7823 13.003 12.5941V11.5438C13.003 10.5717 12.215 9.78372 11.2429 9.78372H7.04143C6.0694 9.78372 5.2814 10.5717 5.2814 11.5438V12.5941C5.2814 12.7823 5.12886 12.9348 4.94069 12.9348C4.75252 12.9348 4.59998 12.7823 4.59998 12.5941V11.5438ZM14.0758 9.44301C14.0758 9.25484 14.2284 9.1023 14.4165 9.1023H14.8785C16.2269 9.1023 17.32 10.1954 17.32 11.5438V12.5941C17.32 12.7823 17.1674 12.9348 16.9793 12.9348C16.7911 12.9348 16.6385 12.7823 16.6385 12.5941V11.5438C16.6385 10.5717 15.8506 9.78372 14.8785 9.78372H14.4165C14.2284 9.78372 14.0758 9.63118 14.0758 9.44301Z" stroke="#001D65" stroke-width="0.5" stroke-linecap="round" stroke-linejoin="round"/>
</g>
<defs>
<filter id="filter0_d_162_363" x="0.349976" y="0.550049" width="21.22" height="18.6348" filterUnits="userSpaceOnUse" color-interpolation-filters="sRGB">
<feFlood flood-opacity="0" result="BackgroundImageFix"/>
<feColorMatrix in="SourceAlpha" type="matrix" values="0 0 0 0 0 0 0 0 0 0 0 0 0 0 0 0 0 0 127 0" result="hardAlpha"/>
<feOffset dy="2"/>
<feGaussianBlur stdDeviation="2"/>
<feColorMatrix type="matrix" values="0 0 0 0 1 0 0 0 0 1 0 0 0 0 1 0 0 0 0.5 0"/>
<feBlend mode="normal" in2="BackgroundImageFix" result="effect1_dropShadow_162_363"/>
<feBlend mode="normal" in="SourceGraphic" in2="effect1_dropShadow_162_363" result="shape"/>
</filter>
</defs>
</svg>
