<svg width="24" height="24" viewBox="0 0 24 24" fill="none" xmlns="http://www.w3.org/2000/svg">
<path d="M12.1233 2.10205C17.5867 2.10205 22.0215 6.53608 22.0217 11.9995C22.0217 17.4631 17.5869 21.8979 12.1233 21.8979C6.65983 21.8978 2.2258 17.463 2.2258 11.9995C2.22599 6.5362 6.65995 2.10224 12.1233 2.10205ZM12.1233 4.08154C7.7586 4.08173 4.20548 7.63485 4.20529 11.9995C4.20529 16.3643 7.75849 19.9183 12.1233 19.9185C16.4882 19.9185 20.0422 16.3644 20.0422 11.9995C20.042 7.63474 16.4881 4.08154 12.1233 4.08154ZM13.1135 11.0103V16.9487H11.134V11.0103H13.1135ZM13.1135 7.05127V9.03076H11.134V7.05127H13.1135Z" fill="#003893"/>
</svg>
